<?xml version="1.0" standalone="no"?>
<!DOCTYPE svg PUBLIC "-//W3C//DTD SVG 20010904//EN"
 "http://www.w3.org/TR/2001/REC-SVG-20010904/DTD/svg10.dtd">
<svg version="1.0" xmlns="http://www.w3.org/2000/svg"
 width="360.000000pt" height="360.000000pt" viewBox="0 0 360.000000 360.000000"
 preserveAspectRatio="xMidYMid meet">
<metadata>
Created by potrace 1.14, written by Peter Selinger 2001-2017
</metadata>
<g transform="translate(0.000000,360.000000) scale(0.100000,-0.100000)"
fill="#000000" stroke="none">
<path d="M740 3145 c0 -2 31 -64 69 -137 98 -189 500 -968 686 -1328 254 -492
300 -580 305 -580 3 0 81 147 174 328 93 180 260 503 372 717 393 759 514 998
510 1003 -3 2 -101 -4 -218 -14 l-213 -19 -65 -125 c-243 -465 -434 -833 -490
-942 -36 -70 -67 -128 -70 -128 -3 0 -34 58 -70 128 -56 109 -247 477 -490
942 l-65 125 -185 17 c-198 18 -250 21 -250 13z"/>
<path d="M737 2403 c1 -247 5 -787 9 -1201 l6 -752 340 0 339 0 -63 77 c-35
42 -97 118 -139 169 l-76 93 -6 248 c-4 136 -7 426 -7 645 l0 396 -195 378
c-107 207 -195 381 -195 386 0 4 -3 8 -7 8 -5 0 -7 -201 -6 -447z"/>
<path d="M2850 2842 c0 -5 -88 -179 -195 -386 l-195 -378 0 -396 c0 -219 -3
-509 -7 -645 l-6 -249 -76 -92 c-42 -51 -104 -127 -139 -169 l-63 -77 339 0
340 0 6 752 c11 1180 12 1648 4 1648 -5 0 -8 -4 -8 -8z"/>
</g>
</svg>
